<svg width="160" height="160" viewBox="0 0 160 160" fill="none" xmlns="http://www.w3.org/2000/svg">
    <g clip-path="url(#clip0_701_2)">
        <mask id="mask0_701_2" style="mask-type:alpha" maskUnits="userSpaceOnUse" x="1" y="0" width="67" height="49">
            <path d="M29.8819 5.28179C17.1225 7.73604 7.14158 17.7701 4.70349 30.6032C3.56825 36.5741 2.63873 42.5731 1.91492 48.5925C14.5244 47.2159 30.047 43.5333 43.2508 34.4569C54.2248 26.9129 60.0483 14.0517 67.1568 0.845764C54.6692 1.43315 42.2121 2.91183 29.8819 5.28179Z" fill="white"/>
        </mask>
        <g mask="url(#mask0_701_2)">
            <path fill-rule="evenodd" clip-rule="evenodd" d="M29.8819 5.28179C17.1225 7.73604 7.14158 17.7701 4.70349 30.6032C3.56825 36.5741 2.63873 42.5731 1.91492 48.5925C14.5244 47.2159 30.047 43.5333 43.2508 34.4569C54.2248 26.9129 60.0483 14.0517 67.1568 0.845764C54.6692 1.43315 42.2121 2.91183 29.8819 5.28179Z" fill="url(#paint0_linear_701_2)"/>
        </g>
        <mask id="mask1_701_2" style="mask-type:alpha" maskUnits="userSpaceOnUse" x="0" y="0" width="145" height="115">
            <path d="M79.0095 0.554626C74.3416 0.562288 69.6737 0.697642 65.0083 0.95558C58.1486 13.7095 52.5079 26.1186 41.9073 33.4048C29.1962 42.1415 14.273 45.7194 2.10286 47.0704C-0.716187 69.4293 -0.698409 92.0564 2.15873 114.408C13.7092 98.3567 28.7543 91.2417 39.266 89.8115C75.8984 84.8367 87.4235 60.1027 103.944 33.7368C113.041 19.2156 128.978 13.9163 144.028 12.55C139.891 8.92358 134.801 6.36463 129.168 5.2818C112.94 2.16355 96.4902 0.585273 80.0381 0.554626H79.0095Z" fill="white"/>
        </mask>
        <g mask="url(#mask1_701_2)">
            <path fill-rule="evenodd" clip-rule="evenodd" d="M79.0095 0.554626C74.3416 0.562288 69.6737 0.697642 65.0083 0.95558C58.1486 13.7095 52.5079 26.1186 41.9073 33.4048C29.1962 42.1415 14.273 45.7194 2.10286 47.0704C-0.716187 69.4293 -0.698409 92.0564 2.15873 114.408C13.7092 98.3567 28.7543 91.2417 39.266 89.8115C75.8984 84.8367 87.4235 60.1027 103.944 33.7368C113.041 19.2156 128.978 13.9163 144.028 12.55C139.891 8.92358 134.801 6.36463 129.168 5.2818C112.94 2.16355 96.4902 0.585273 80.0381 0.554626H79.0095Z" fill="url(#paint1_linear_701_2)"/>
        </g>
        <mask id="mask2_701_2" style="mask-type:alpha" maskUnits="userSpaceOnUse" x="0" y="11" width="160" height="145">
            <path d="M103.944 32.4087C87.4235 58.7772 79.5226 77.9821 42.8927 82.9621C31.9822 84.4408 12.7365 85.0078 0.868591 102.034C1.63558 111.55 2.91558 121.032 4.70351 130.443C7.10859 143.113 16.8711 153.052 29.3994 155.665C31.6216 136.738 38.8038 119.758 58.7353 107.732C88.4343 89.8115 100.312 100.762 131.002 91.8035C142.857 88.3431 152.056 82.3288 159.012 76.0157C158.756 60.805 157.199 45.6096 154.344 30.6032C152.864 22.7935 148.589 16.0233 142.593 11.3651C127.972 12.9357 112.752 18.3498 103.944 32.4087Z" fill="white"/>
        </mask>
        <g mask="url(#mask2_701_2)">
            <path fill-rule="evenodd" clip-rule="evenodd" d="M103.944 32.4087C87.4235 58.7772 79.5226 77.9821 42.8927 82.9621C31.9822 84.4408 12.7365 85.0078 0.868591 102.034C1.63558 111.55 2.91558 121.032 4.70351 130.443C7.10859 143.113 16.8711 153.052 29.3994 155.665C31.6216 136.738 38.8038 119.758 58.7353 107.732C88.4343 89.8115 100.312 100.762 131.002 91.8035C142.857 88.3431 152.056 82.3288 159.012 76.0157C158.756 60.805 157.199 45.6096 154.344 30.6032C152.864 22.7935 148.589 16.0233 142.593 11.3651C127.972 12.9357 112.752 18.3498 103.944 32.4087Z" fill="url(#paint2_linear_701_2)"/>
        </g>
        <mask id="mask3_701_2" style="mask-type:alpha" maskUnits="userSpaceOnUse" x="90" y="119" width="67" height="42">
            <path d="M126.024 123.042C102.499 131.687 93.6178 150.435 90.4889 160.262C103.446 159.721 116.373 158.221 129.168 155.762C141.93 153.308 151.909 143.274 154.344 130.443C155.043 126.768 155.665 123.083 156.208 119.39C155.126 119.367 154.024 119.354 152.907 119.354C143.86 119.354 133.801 120.179 126.024 123.042Z" fill="white"/>
        </mask>
        <g mask="url(#mask3_701_2)">
            <path fill-rule="evenodd" clip-rule="evenodd" d="M126.024 123.042C102.499 131.687 93.6178 150.435 90.4889 160.262C103.446 159.721 116.373 158.221 129.168 155.762C141.93 153.308 151.909 143.274 154.344 130.443C155.043 126.768 155.665 123.083 156.208 119.39C155.126 119.367 154.024 119.354 152.907 119.354C143.86 119.354 133.801 120.179 126.024 123.042Z" fill="url(#paint3_linear_701_2)"/>
        </g>
        <mask id="mask4_701_2" style="mask-type:alpha" maskUnits="userSpaceOnUse" x="27" y="74" width="133" height="87">
            <path d="M130.596 90.8152C99.4641 99.9018 87.4159 88.7951 57.2876 106.971C37.1962 119.091 29.8743 136.177 27.5708 155.228C28.3302 155.433 29.0997 155.611 29.8819 155.762C46.1079 158.88 62.5524 160.459 79.0019 160.489H80.0483C84.6273 160.482 89.2064 160.351 93.7803 160.104C96.8127 150.698 105.305 133 127.581 124.809C135.784 121.793 146.644 121.15 155.916 121.323C158.004 107.803 159.05 94.1633 159.05 80.5232C159.05 78.6206 159.03 76.718 158.989 74.8154C151.937 81.2179 142.611 87.3037 130.596 90.8152Z" fill="white"/>
        </mask>
        <g mask="url(#mask4_701_2)">
            <path fill-rule="evenodd" clip-rule="evenodd" d="M130.596 90.8152C99.4641 99.9018 87.4159 88.7951 57.2876 106.971C37.1962 119.091 29.8743 136.177 27.5708 155.228C28.3302 155.433 29.0997 155.611 29.8819 155.762C46.1079 158.88 62.5524 160.459 79.0019 160.489H80.0483C84.6273 160.482 89.2064 160.351 93.7803 160.104C96.8127 150.698 105.305 133 127.581 124.809C135.784 121.793 146.644 121.15 155.916 121.323C158.004 107.803 159.05 94.1633 159.05 80.5232C159.05 78.6206 159.03 76.718 158.989 74.8154C151.937 81.2179 142.611 87.3037 130.596 90.8152Z" fill="url(#paint4_linear_701_2)"/>
        </g>
        <path d="M21.03 56V31.5H33.945C35.555 31.5 36.9783 31.85 38.215 32.55C39.475 33.2267 40.4667 34.16 41.19 35.35C41.9133 36.54 42.275 37.905 42.275 39.445C42.275 40.915 41.9133 42.245 41.19 43.435C40.4667 44.6017 39.475 45.5233 38.215 46.2C36.955 46.8767 35.5317 47.215 33.945 47.215H27.05V56H21.03ZM27.05 42.245H33.245C34.1317 42.245 34.8433 41.9883 35.38 41.475C35.9167 40.9617 36.185 40.2967 36.185 39.48C36.185 38.64 35.9167 37.9633 35.38 37.45C34.8433 36.9133 34.1317 36.645 33.245 36.645H27.05V42.245ZM51.3859 50.68H55.1659C56.1226 50.68 57.0093 50.505 57.8259 50.155C58.6659 49.805 59.4009 49.315 60.0309 48.685C60.6609 48.055 61.1509 47.3317 61.5009 46.515C61.8509 45.675 62.0259 44.7767 62.0259 43.82C62.0259 42.84 61.8509 41.93 61.5009 41.09C61.1509 40.2267 60.6609 39.48 60.0309 38.85C59.4009 38.22 58.6659 37.73 57.8259 37.38C57.0093 37.0067 56.1226 36.82 55.1659 36.82H51.3859V50.68ZM45.3659 56V31.5H55.3059C57.1259 31.5 58.8176 31.815 60.3809 32.445C61.9443 33.075 63.3093 33.95 64.4759 35.07C65.6659 36.19 66.5876 37.4967 67.2409 38.99C67.9176 40.4833 68.2559 42.0933 68.2559 43.82C68.2559 45.5233 67.9176 47.11 67.2409 48.58C66.5876 50.05 65.6659 51.345 64.4759 52.465C63.3093 53.5617 61.9443 54.425 60.3809 55.055C58.8176 55.685 57.1259 56 55.3059 56H45.3659ZM71.445 56V31.5H90.905V36.715H77.465V41.3H86.425V46.34H77.465V56H71.445ZM22.705 76V67.78H19.27V65.5H28.72V67.78H25.285V76H22.705ZM31.8985 76.15C31.0885 76.15 30.3535 75.97 29.6935 75.61C29.0435 75.24 28.5285 74.745 28.1485 74.125C27.7685 73.505 27.5785 72.81 27.5785 72.04C27.5785 71.27 27.7585 70.575 28.1185 69.955C28.4885 69.335 28.9885 68.845 29.6185 68.485C30.2485 68.115 30.9485 67.93 31.7185 67.93C32.4985 67.93 33.1885 68.12 33.7885 68.5C34.3885 68.87 34.8585 69.38 35.1985 70.03C35.5485 70.68 35.7235 71.425 35.7235 72.265V72.865H30.0685C30.1785 73.115 30.3235 73.335 30.5035 73.525C30.6935 73.715 30.9185 73.865 31.1785 73.975C31.4385 74.075 31.7185 74.125 32.0185 74.125C32.3485 74.125 32.6485 74.075 32.9185 73.975C33.1885 73.865 33.4185 73.715 33.6085 73.525L35.2135 74.95C34.7135 75.37 34.1985 75.675 33.6685 75.865C33.1485 76.055 32.5585 76.15 31.8985 76.15ZM30.0235 71.17H33.3385C33.2585 70.91 33.1335 70.69 32.9635 70.51C32.8035 70.32 32.6135 70.175 32.3935 70.075C32.1735 69.965 31.9335 69.91 31.6735 69.91C31.4035 69.91 31.1585 69.96 30.9385 70.06C30.7185 70.16 30.5285 70.305 30.3685 70.495C30.2185 70.675 30.1035 70.9 30.0235 71.17ZM36.8594 76V68.065H39.2894V68.575C39.8494 68.135 40.5094 67.915 41.2694 67.915C41.7694 67.915 42.2194 68.01 42.6194 68.2C43.0194 68.39 43.3544 68.66 43.6244 69.01C43.9444 68.66 44.3244 68.39 44.7644 68.2C45.2044 68.01 45.6844 67.915 46.2044 67.915C46.8044 67.915 47.3344 68.05 47.7944 68.32C48.2544 68.59 48.6144 68.965 48.8744 69.445C49.1444 69.925 49.2794 70.48 49.2794 71.11V76H46.8494V71.44C46.8494 71 46.7294 70.65 46.4894 70.39C46.2594 70.13 45.9494 70 45.5594 70C45.2894 70 45.0444 70.05 44.8244 70.15C44.6044 70.25 44.4144 70.4 44.2544 70.6C44.2644 70.68 44.2694 70.765 44.2694 70.855C44.2794 70.935 44.2844 71.02 44.2844 71.11V76H41.8544V71.44C41.8544 71 41.7344 70.65 41.4944 70.39C41.2644 70.13 40.9544 70 40.5644 70C40.2944 70 40.0494 70.05 39.8294 70.15C39.6194 70.24 39.4394 70.38 39.2894 70.57V76H36.8594ZM50.7168 79.06V68.065H53.1168V68.65C53.7468 68.19 54.4568 67.96 55.2468 67.96C56.0068 67.96 56.6918 68.145 57.3018 68.515C57.9118 68.875 58.3968 69.365 58.7568 69.985C59.1168 70.595 59.2968 71.28 59.2968 72.04C59.2968 72.8 59.1118 73.49 58.7418 74.11C58.3818 74.72 57.8868 75.205 57.2568 75.565C56.6368 75.925 55.9418 76.105 55.1718 76.105C54.8018 76.105 54.4468 76.06 54.1068 75.97C53.7668 75.88 53.4468 75.75 53.1468 75.58V79.06H50.7168ZM54.8268 74.05C55.2268 74.05 55.5818 73.965 55.8918 73.795C56.2018 73.615 56.4468 73.375 56.6268 73.075C56.8168 72.765 56.9118 72.42 56.9118 72.04C56.9118 71.66 56.8168 71.32 56.6268 71.02C56.4468 70.71 56.1968 70.47 55.8768 70.3C55.5668 70.12 55.2168 70.03 54.8268 70.03C54.4868 70.03 54.1768 70.085 53.8968 70.195C53.6168 70.295 53.3668 70.45 53.1468 70.66V73.435C53.3568 73.625 53.6068 73.775 53.8968 73.
885C54.1868 73.995 54.4968 74.05 54.8268 74.05ZM60.4434 76V65.5L62.8734 65.125V76H60.4434ZM66.9041 76.135C66.3441 76.135 65.8441 76.03 65.4041 75.82C64.9741 75.61 64.6341 75.32 64.3841 74.95C64.1441 74.58 64.0241 74.155 64.0241 73.675C64.0241 72.915 64.3091 72.33 64.8791 71.92C65.4591 71.5 66.2641 71.29 67.2941 71.29C67.9141 71.29 68.5141 71.365 69.0941 71.515V71.125C69.0941 70.725 68.9641 70.43 68.7041 70.24C68.4541 70.04 68.0791 69.94 67.5791 69.94C67.2691 69.94 66.9191 69.99 66.5291 70.09C66.1491 70.19 65.6991 70.35 65.1791 70.57L64.3091 68.785C64.9591 68.495 65.5841 68.28 66.1841 68.14C66.7941 67.99 67.4041 67.915 68.0141 67.915C69.1141 67.915 69.9691 68.18 70.5791 68.71C71.1891 69.23 71.4941 69.965 71.4941 70.915V76H69.0941V75.52C68.7741 75.74 68.4341 75.9 68.0741 76C67.7241 76.09 67.3341 76.135 66.9041 76.135ZM66.3341 73.63C66.3341 73.88 66.4441 74.075 66.6641 74.215C66.8841 74.355 67.1891 74.425 67.5791 74.425C67.8691 74.425 68.1391 74.395 68.3891 74.335C68.6491 74.275 68.8841 74.18 69.0941 74.05V73.03C68.8641 72.97 68.6291 72.925 68.3891 72.895C68.1491 72.865 67.9041 72.85 67.6541 72.85C67.2341 72.85 66.9091 72.92 66.6791 73.06C66.4491 73.19 66.3341 73.38 66.3341 73.63ZM76.7238 76.105C75.7738 76.105 75.0538 75.895 74.5638 75.475C74.0838 75.045 73.8438 74.415 73.8438 73.585V70.09H72.2388V68.065H73.8438V66.025L76.2738 65.5V68.065H78.4938V70.09H76.2738V73.105C76.2738 73.455 76.3488 73.705 76.4988 73.855C76.6588 73.995 76.9338 74.065 77.3238 74.065C77.5238 74.065 77.7038 74.055 77.8638 74.035C78.0338 74.005 78.2188 73.96 78.4188 73.9V75.865C78.1988 75.935 77.9188 75.99 77.5788 76.03C77.2388 76.08 76.9538 76.105 76.7238 76.105ZM83.3291 76.15C82.5191 76.15 81.7841 75.97 81.1241 75.61C80.4741 75.24 79.9591 74.745 79.5791 74.125C79.1991 73.505 79.0091 72.81 79.0091 72.04C79.0091 71.27 79.1891 70.575 79.5491 69.955C79.9191 69.335 80.4191 68.845 81.0491 68.485C81.6791 68.115 82.3791 67.93 83.1491 67.93C83.9291 67.93 84.6191 68.12 85.2191 68.5C85.8191 68.87 86.2891 69.38 86.6291 70.03C86.9791 70.68 87.1541 71.425 87.1541 72.265V72.865H81.4991C81.6091 73.115 81.7541 73.335 81.9341 73.525C82.1241 73.715 82.3491 73.865 82.6091 73.975C82.8691 74.075 83.1491 74.125 83.4491 74.125C83.7791 74.125 84.0791 74.075 84.3491 73.975C84.6191 73.865 84.8491 73.715 85.0391 73.525L86.6441 74.95C86.1441 75.37 85.6291 75.675 85.0991 75.865C84.5791 76.055 83.9891 76.15 83.3291 76.15ZM81.4541 71.17H84.7691C84.6891 70.91 84.5641 70.69 84.3941 70.51C84.2341 70.32 84.0441 70.175 83.8241 70.075C83.6041 69.965 83.3641 69.91 83.1041 69.91C82.8341 69.91 82.5891 69.96 82.3691 70.06C82.1491 70.16 81.9591 70.305 81.7991 70.495C81.6491 70.675 81.5341 70.9 81.4541 71.17Z" fill="white"/>
        <g clip-path="url(#clip1_701_2)">
            <path d="M102.833 95C99.0643 95 96 98.027 96 101.75V142.25C96 145.973 99.0643 149 102.833 149H130.167C133.936 149 137 145.973 137 142.25V111.875H123.333C121.443 111.875 119.917 110.367 119.917 108.5V95H102.833ZM123.333 95V108.5H137L123.333 95ZM102.833 118.625H105.396C108.695 118.625 111.375 121.272 111.375 124.531C111.375 127.79 108.695 130.438 105.396 130.438H104.542V133.812C104.542 134.741 103.773 135.5 102.833 135.5C101.894 135.5 101.125 134.741 101.125 133.812V128.75V120.312C101.125 119.384 101.894 118.625 102.833 118.625ZM105.396 127.062C106.816 127.062 107.958 125.934 107.958 124.531C107.958 123.129 106.816 122 105.396 122H104.542V127.062H105.396ZM113.083 120.312C113.083 119.384 113.852 118.625 114.792 118.625H117.354C120.184 118.625 122.479 120.893 122.479 123.688V130.438C122.479 133.232 120.184 135.5 117.354 135.5H114.792C113.852 135.5 113.083 134.741 113.083 133.812V120.312ZM116.5 132.125H117.354C118.294 132.125 119.063 131.366 119.063 130.438V123.688C119.063 122.759 118.294 122 117.354 122H116.5V132.125ZM126.75 118.625H131.875C132.815 118.625 133.583 119.384 133.583 120.312C133.583 121.241 132.815 122 131.875 122H128.458V125.375H131.875C132.815 125.375 133.583 126.134 133.583 127.062C133.583 127.991 132.815 128.75 131.875 128.75H128.458V133.812C128.458 134.741 127.69 135.5 126.75 135.5C125.81 135.5 125.042 134.741 125.042 133.812V127.062V120.312C125.042 119.384 125.81 118.625 126.75 118.625Z" fill="white"/>
        </g>
    </g>
    <defs>
        <linearGradient id="paint0_linear_701_2" x1="61.0013" y1="14.5395" x2="14.3645" y2="30.248" gradientUnits="userSpaceOnUse">
            <stop stop-color="#121C28"/>
            <stop offset="1" stop-color="#2A2367"/>
        </linearGradient>
        <linearGradient id="paint1_linear_701_2" x1="114.404" y1="20.2994" x2="39.0881" y2="89.0192" gradientUnits="userSpaceOnUse">
            <stop stop-color="#28235B"/>
            <stop offset="1" stop-color="#E6007E"/>
        </linearGradient>
        <linearGradient id="paint2_linear_701_2" x1="147.997" y1="55.3693" x2="21.0256" y2="123.426" gradientUnits="userSpaceOnUse">
            <stop stop-color="#FF9500"/>
            <stop offset="1" stop-color="#E6007E"/>
        </linearGradient>
        <linearGradient id="paint3_linear_701_2" x1="154.688" y1="138.523" x2="112.34" y2="156.725" gradientUnits="userSpaceOnUse">
            <stop stop-color="#E6332A"/>
            <stop offset="1" stop-color="#FF645B"/>
        </linearGradient>
        <linearGradient id="paint4_linear_701_2" x1="132.879" y1="107.08" x2="84.638" y2="147.806" gradientUnits="userSpaceOnUse">
            <stop stop-color="#FF9500"/>
            <stop offset="1" stop-color="#FF645B"/>
        </linearGradient>
        <clipPath id="clip0_701_2">
            <rect width="160" height="160" fill="white"/>
        </clipPath>
        <clipPath id="clip1_701_2">
            <rect width="41" height="54" fill="white" transform="translate(96 95)"/>
        </clipPath>
    </defs>
</svg>
